<svg version="1.1" xmlns="http://www.w3.org/2000/svg" xmlns:xlink="http://www.w3.org/1999/xlink" preserveAspectRatio="xMidYMid meet" viewBox="670 289 125 101"><g data-item-type="text" data-item="Business" id="logo__item--business" class="logo__item">
                <g class="logo__item__inner" transform="translate(733 387.30796817934066) scale(1 1) rotate(0 0 0)">
                    <text data-part-id="logo__item--business" dy="0" dominant-baseline="auto" alignment-baseline="auto" font-family="Montserrat" font-size="32px" fill="#7F5E40" letter-spacing="0" font-weight="bold" font-style="normal" data-font-family="Montserrat" data-font-weight="bold" data-font-style="normal" data-ttf-url="/builder_assets/fontsttf/font-montserrat-bold-normal.ttf"></text>
                </g>
            </g><g data-item-type="image" data-item="Image" data-logo-item="" id="logo__item--logo_0" class="logo__item">
    <g class="logo__item__inner" transform="translate(649.8139909559417 265.5) scale(1.6042351389899767 1.6042351389899767) rotate(0 0 0)">
        
<g>
	<g>
		<path fill="#cf2027" d="M49.606,75.929l-35.153-4.23l9.505-33.788l31.397,8.655L49.606,75.929z M19.836,68.109l26.389,3.172    l4.249-21.695l-23.6-6.505L19.836,68.109z" data-part-id="logo__item--logo_0__0"></path>
	</g>
	<g>
		<polygon fill="#5ccae8" points="68.291,56.754 57.32,56.606 57.379,52.398 63.023,52.473 57.893,29.399 38.431,33.828     39.59,36.769 35.673,38.31 32.721,30.811 61.083,24.356   " data-part-id="logo__item--logo_0__1"></polygon>
	</g>
	<g>
		<polygon fill="#ffe275" points="70.994,51.026 68.442,47.678 83.052,36.542 72.1,24.51 69.615,29.843 65.799,28.068     70.951,16.997 89.255,37.104   " data-part-id="logo__item--logo_0__2"></polygon>
	</g>
</g>

    </g>
</g></svg>